# xmcd CD database file
#
# Track frame offsets:
#	183
#	32833
#	49933
#	69883
#	95533
#	117043
#	138980
#	158458
#
# Disc length: 2495 seconds
#
# Revision: 0
# Processed by: cddbd v1.5.2PL0 Copyright (c) Steve Scherf et al.
# Submitted via: CDex 1.51
#
DISCID=5e09bd08
DTITLE=Robert Bearns and Ron Dexter - The golden voyage IV
DYEAR=1900
DGENRE=New Age
TTITLE0=Vijali
TTITLE1=Come away with me
TTITLE2=The enchanted garden
TTITLE3=Why lt it all pass you by
TTITLE4=A lover´s dream
TTITLE5=You where always the one
TTITLE6=The enchanted garden 1
TTITLE7=Season´s change
EXTD=
EXTT0=
EXTT1=
EXTT2=
EXTT3=
EXTT4=
EXTT5=
EXTT6=
EXTT7=
PLAYORDER=
